<svg xmlns="http://www.w3.org/2000/svg" xmlns:xlink="http://www.w3.org/1999/xlink" viewBox="0 0 595.28 444.8"><defs><style>.cls-1{fill:none;}.cls-2{isolation:isolate;}.cls-3{fill:#d5d9dd;}.cls-4{clip-path:url(#clip-path);}.cls-5{fill:#f4f5f6;}.cls-6{fill:#e9eced;}.cls-7{fill:#bfc5ca;}.cls-8{fill:#b5bcc2;}.cls-9{fill:#eef0f1;}.cls-10{fill:#d5d9dc;}.cls-11{fill:#c1c7cd;}.cls-12{fill:#88939e;}.cls-13{fill:#e0e3e5;}.cls-14{fill:#566673;opacity:0.2;mix-blend-mode:darken;}</style><clipPath id="clip-path"><rect class="cls-1" x="44.28" y="43.18" width="506.71" height="358.44"/></clipPath></defs><title>new_arrows</title><g class="cls-2"><g id="New_Arrow" data-name="New Arrow"><path id="Light_Cap" data-name="Light Cap" class="cls-3" d="M472.87,209.56l-50.21-14c.08.36.08,53.32,0,53.68l50.21-14c5.83-1.63,11.12-7.66,11.12-12.92s-5.29-11.13-11.12-12.76"/><g id="Back"><g class="cls-4"><g class="cls-4"><path class="cls-5" d="M276.06,144.38,178.7,117.23a5,5,0,0,0-6.39,4.84V175a5,5,0,0,0,6.39,4.85l97.36-27.15c1.88-.53,3.6-2.48,3.6-4.18s-1.72-3.61-3.6-4.13"/><path class="cls-6" d="M191.49,181.31l97.36-27.15a5,5,0,0,1,6.39,4.85v52.91a5,5,0,0,1-6.39,4.85l-97.36-27.15c-1.88-.52-3.59-2.48-3.59-4.18s1.71-3.6,3.59-4.13"/><path class="cls-7" d="M63.46,144.38l97.36-27.15a5,5,0,0,1,6.38,4.84V175a5,5,0,0,1-6.38,4.85L63.46,152.69c-1.89-.53-3.6-2.48-3.6-4.18s1.71-3.61,3.6-4.13"/><path class="cls-7" d="M148,189.62,50.66,216.77a5,5,0,0,1-6.38-4.85V159a5,5,0,0,1,6.38-4.85L148,181.31c1.89.53,3.6,2.48,3.6,4.18s-1.71,3.61-3.6,4.13"/><path class="cls-8" d="M276,226.55,178.66,253.7a5,5,0,0,1-6.38-4.84V195.94a5,5,0,0,1,6.38-4.84L276,218.24c1.89.53,3.6,2.48,3.6,4.19s-1.71,3.6-3.6,4.12"/><path class="cls-9" d="M63.23,226.55l97.36,27.15a5,5,0,0,0,6.38-4.84V195.94a5,5,0,0,0-6.38-4.84L63.23,218.24c-1.89.53-3.6,2.48-3.6,4.19s1.71,3.6,3.6,4.12"/><path class="cls-10" d="M403.78,189.62l-97.36,27.15a5,5,0,0,1-6.38-4.85V159a5,5,0,0,1,6.38-4.85l97.36,27.15c1.89.53,3.6,2.48,3.6,4.18s-1.71,3.61-3.6,4.13"/><path class="cls-11" d="M319,226.55l97.36,27.15a5,5,0,0,0,6.38-4.84V195.94a5,5,0,0,0-6.38-4.84L319,218.24c-1.89.53-3.6,2.48-3.6,4.19s1.71,3.6,3.6,4.12"/><path class="cls-7" d="M63.38,292.11,160.75,265a5,5,0,0,1,6.38,4.84v52.92a5,5,0,0,1-6.38,4.85L63.38,300.42c-1.88-.53-3.59-2.48-3.59-4.18s1.71-3.61,3.59-4.13"/><path class="cls-7" d="M148.14,255.17,50.78,228a5,5,0,0,0-6.38,4.84v52.92a5,5,0,0,0,6.38,4.84l97.36-27.14c1.89-.53,3.6-2.48,3.6-4.19s-1.71-3.6-3.6-4.13"/><path class="cls-12" d="M275.9,292.11,178.54,265a5,5,0,0,0-6.38,4.84v52.92a5,5,0,0,0,6.38,4.85l97.36-27.15c1.89-.53,3.6-2.48,3.6-4.18s-1.71-3.61-3.6-4.13"/><path class="cls-12" d="M403.9,255.17,306.53,228a5,5,0,0,0-6.37,4.84v52.92a5,5,0,0,0,6.37,4.84l97.37-27.14c1.88-.53,3.59-2.48,3.59-4.19s-1.71-3.6-3.59-4.13"/><path class="cls-12" d="M191.11,255.17,288.47,228a5,5,0,0,1,6.38,4.84v52.92a5,5,0,0,1-6.38,4.84l-97.36-27.14c-1.89-.53-3.6-2.48-3.6-4.19s1.71-3.6,3.6-4.13"/><path class="cls-9" d="M275.9,292.11,178.54,265a5,5,0,0,0-6.38,4.84v52.92a5,5,0,0,0,6.38,4.85l97.36-27.15c1.89-.53,3.6-2.48,3.6-4.18s-1.71-3.61-3.6-4.13"/><path class="cls-5" d="M403.9,255.17,306.53,228a5,5,0,0,0-6.37,4.84v52.92a5,5,0,0,0,6.37,4.84l97.37-27.14c1.88-.53,3.59-2.48,3.59-4.19s-1.71-3.6-3.59-4.13"/><path class="cls-13" d="M191.11,255.17,288.47,228a5,5,0,0,1,6.38,4.84v52.92a5,5,0,0,1-6.38,4.84l-97.36-27.14c-1.89-.53-3.6-2.48-3.6-4.19s1.71-3.6,3.6-4.13"/></g></g></g><g id="Arrow-2" data-name="Arrow"><path class="cls-14" d="M422.66,249.24,164.35,321.19a15.87,15.87,0,0,1-20.13-15.29v-167a15.87,15.87,0,0,1,20.13-15.29l258.31,72,.07,18s-.07,12.42-.07,19.35Z"/></g></g></g></svg>