<?xml version="1.0" encoding="UTF-8" standalone="no"?>
<!DOCTYPE svg PUBLIC "-//W3C//DTD SVG 1.1//EN" "http://www.w3.org/Graphics/SVG/1.1/DTD/svg11.dtd">
<svg width="100%" height="100%" viewBox="0 0 5100 3300" version="1.1" xmlns="http://www.w3.org/2000/svg" xmlns:xlink="http://www.w3.org/1999/xlink" xml:space="preserve" xmlns:serif="http://www.serif.com/" style="fill-rule:evenodd;clip-rule:evenodd;stroke-linejoin:round;stroke-miterlimit:2;">
    <g id="Layer-1" serif:id="Layer 1" transform="matrix(4.16667,0,0,4.16667,0,0)">
        <g transform="matrix(1,0,0,1,548.916,493.248)">
            <path d="M0,-7.303L-85.515,-31.147C-88.33,-31.931 -91.118,-29.815 -91.118,-26.891L-91.118,19.587C-91.118,22.51 -88.33,24.628 -85.515,23.843L0,-0.001C1.658,-0.463 3.161,-2.179 3.161,-3.675C3.161,-5.171 1.658,-6.841 0,-7.303" style="fill:rgb(66,85,99);fill-rule:nonzero;"/>
        </g>
        <g transform="matrix(1,0,0,1,528.881,445.947)">
            <path d="M0,-99.638C0,-114.479 17.352,-126.621 52.055,-126.621C88.427,-126.621 135.435,-106.33 156.709,-88.493C185.111,-108.731 227.715,-124.918 260.486,-124.918C295.443,-124.918 312.92,-112.778 312.92,-97.938C312.92,-62.957 215.557,-69.046 157.288,-34.966C99.82,-70.949 0,-64.088 0,-99.638M428.133,127.816C408.44,104.09 400.001,75.048 400.001,42.69L398.672,-87.145C398.672,-140.434 351.7,-194.398 261.032,-194.398C220.541,-194.398 186.277,-185.183 157.521,-170.517C128.319,-186.172 93.245,-196.099 51.513,-196.099C9.951,-196.099 -22.339,-184.579 -45.083,-166.948L-45.083,-187.704C-45.083,-190.143 -47.061,-192.121 -49.5,-192.121L-112.861,-192.121L-112.861,-267.855C-112.861,-270.778 -115.649,-272.895 -118.465,-272.11L-203.979,-248.267C-205.889,-247.734 -207.21,-245.994 -207.21,-244.012L-207.21,-192.121L-259.185,-192.121C-261.625,-192.121 -263.603,-190.143 -263.603,-187.704L-263.603,-118.966C-263.603,-116.526 -261.625,-114.548 -259.185,-114.548L-206.104,-114.548L-206.104,42.69C-206.405,84.705 -202.534,111.461 -185.773,133.399C-184.948,134.479 -183.638,135.105 -182.278,135.105L-88.076,135.105C-84.347,135.105 -82.283,130.758 -84.666,127.889C-88.927,122.76 -112.861,95.123 -112.861,42.69L-112.861,-114.548L-82.87,-114.548C-84.369,-107.866 -85.13,-95.618 -85.13,-88.845C-85.13,26.503 111.158,-9.922 111.158,42.016C111.158,48.867 110.516,60.847 83.654,68.815L-43.637,105.915C-48.958,107.554 -48.097,111.339 -45.491,113.997C-22.021,137.932 88.335,162.303 156.657,111.94C156.729,111.886 217.859,173.257 317.516,117.86C320.208,123.389 323.385,128.56 327.094,133.406C327.919,134.484 329.224,135.105 330.581,135.105L424.775,135.105C428.552,135.105 430.545,130.722 428.133,127.816M253.177,74.743C229.635,78.509 200.951,66.735 200.951,43.717C200.951,16.53 261.393,11.457 313.026,-1.748C312.608,-1.642 317.743,64.412 253.177,74.743" style="fill:rgb(210,38,48);fill-rule:nonzero;"/>
        </g>
        <g transform="matrix(1,0,0,1,972.189,273.578)">
            <path d="M0,32.041L-8.011,15.893L-12.207,30.134C-12.588,31.278 -13.732,32.041 -14.877,32.041L-18.945,32.041C-19.963,32.041 -20.599,31.024 -20.345,30.134L-9.918,0.762C-9.791,0.253 -9.282,-0.128 -8.773,-0.128C-8.265,-0.128 -7.757,0.126 -7.502,0.635L0.89,17.165L8.9,0.635C9.155,0.253 9.663,-0.128 10.172,-0.128C10.681,-0.128 11.189,0.253 11.316,0.762L21.997,30.134C22.251,31.024 21.615,32.041 20.599,32.041L16.656,32.041C15.385,32.041 14.368,31.278 13.986,30.134L9.536,15.639L1.398,32.041C1.271,32.295 1.017,32.423 0.636,32.423C0.381,32.423 0.127,32.295 0,32.041M-37.637,6.738L-44.122,6.738C-45.266,6.738 -46.156,5.848 -46.156,4.704L-46.156,1.652C-46.156,0.508 -45.266,-0.382 -44.122,-0.382L-23.523,-0.382C-22.379,-0.382 -21.488,0.508 -21.488,1.652L-21.488,4.704C-21.488,5.848 -22.379,6.738 -23.523,6.738L-30.008,6.738L-30.008,30.007C-30.008,31.151 -30.897,32.041 -32.042,32.041L-35.603,32.041C-36.747,32.041 -37.637,31.151 -37.637,30.007L-37.637,6.738Z" style="fill:rgb(210,38,48);fill-rule:nonzero;"/>
        </g>
    </g>
</svg>
